<svg width="20" height="15" viewBox="0 0 20 15" fill="none" xmlns="http://www.w3.org/2000/svg">
<path d="M14.8827 2.26843C14.66 1.85161 14.242 1.57531 13.7712 1.53386L9.95909 1.17456C9.45555 1.12636 8.995 0.870204 8.68837 0.467923C8.29287 -0.0528171 7.5501 -0.154308 7.02936 0.241194C6.97497 0.282496 6.92427 0.328461 6.87779 0.378501L4.79565 3.10642H15.1415L14.8827 2.26843Z" fill="#46495C" fill-opacity="0.24"/>
<path d="M2.67236 6.86841V13.2643C2.67385 13.9536 3.23382 14.5111 3.9231 14.5096C3.92415 14.5096 3.92525 14.5096 3.92631 14.5096H16.0739C16.7632 14.5129 17.3246 13.9568 17.3279 13.2675C17.3279 13.2665 17.3279 13.2654 17.3279 13.2643V6.86841H2.67236Z" fill="#46495C" fill-opacity="0.24"/>
<path d="M15.5688 3.73279H15.5679H15.5669H3.45947V6.24068H16.5475V3.73279H15.5688Z" fill="#46495C" fill-opacity="0.24"/>
</svg>
