<svg width="20" height="20" viewBox="0 0 20 20" fill="none" xmlns="http://www.w3.org/2000/svg">
<path d="M11.0254 3.41888C9.7632 3.41888 8.52933 3.79317 7.47984 4.49442C6.43035 5.19567 5.61237 6.19237 5.12935 7.35851C4.64632 8.52464 4.51994 9.80781 4.76618 11.0458C5.01243 12.2837 5.62024 13.4209 6.51276 14.3134C7.40528 15.2059 8.54241 15.8137 9.78037 16.06C11.0183 16.3062 12.3015 16.1798 13.4676 15.6968C14.6338 15.2138 15.6305 14.3958 16.3317 13.3463C17.033 12.2968 17.4073 11.0629 17.4073 9.80073C17.4073 8.10816 16.7349 6.48491 15.5381 5.28808C14.3412 4.09126 12.718 3.41888 11.0254 3.41888ZM13.332 12.1073C13.2038 12.2354 13.03 12.3073 12.8488 12.3073C12.6676 12.3073 12.4938 12.2354 12.3656 12.1073L10.5422 10.2839C10.4139 10.1558 10.3418 9.98202 10.3416 9.80073V6.60981C10.3416 6.42846 10.4137 6.25454 10.5419 6.12631C10.6701 5.99808 10.8441 5.92604 11.0254 5.92604C11.2068 5.92604 11.3807 5.99808 11.5089 6.12631C11.6371 6.25454 11.7092 6.42846 11.7092 6.60981V9.51811L13.332 11.1409C13.46 11.2691 13.532 11.4429 13.532 11.6241C13.532 11.8053 13.46 11.9791 13.332 12.1073Z" fill="#46495C" fill-opacity="0.24"/>
<path d="M11.0243 2.50715C9.41301 2.50472 7.84712 3.04058 6.5752 4.02968L7.48689 1.13962C7.58358 0.819422 7.77792 0.537449 8.04273 0.333121C8.30754 0.128792 8.62958 0.0123242 8.96383 0H13.0847C13.4268 0.00281991 13.7591 0.114921 14.033 0.319939C14.3069 0.524957 14.5081 0.812157 14.6072 1.13962L15.4733 4.02968C14.2014 3.04058 12.6355 2.50472 11.0243 2.50715Z" fill="#46495C" fill-opacity="0.24"/>
<path d="M11.0274 17.0944C12.6386 17.0968 14.2045 16.5609 15.4764 15.5718L14.6103 18.4619C14.5112 18.7894 14.31 19.0766 14.0361 19.2816C13.7622 19.4866 13.4299 19.5987 13.0878 19.6015H8.96693C8.62481 19.5987 8.29255 19.4866 8.01864 19.2816C7.74474 19.0766 7.54354 18.7894 7.44441 18.4619L6.53271 15.5718C7.81695 16.5706 9.40051 17.107 11.0274 17.0944Z" fill="#46495C" fill-opacity="0.24"/>
<path d="M3.27654 11.3964C3.09593 11.394 2.92338 11.3212 2.79566 11.1935C2.66793 11.0658 2.59513 10.8932 2.59277 10.7126V8.88921C2.59277 8.70787 2.66481 8.53395 2.79304 8.40572C2.92128 8.27748 3.0952 8.20544 3.27654 8.20544C3.45789 8.20544 3.63181 8.27748 3.76004 8.40572C3.88827 8.53395 3.96031 8.70787 3.96031 8.88921V10.7126C3.95795 10.8932 3.88515 11.0658 3.75743 11.1935C3.62971 11.3212 3.45716 11.394 3.27654 11.3964Z" fill="#46495C" fill-opacity="0.24"/>
</svg>
